<?xml version="1.0" encoding="UTF-8"?>
<!DOCTYPE svg PUBLIC "-//W3C//DTD SVG 1.1//EN" "http://www.w3.org/Graphics/SVG/1.1/DTD/svg11.dtd">
<!-- Creator: CorelDRAW X8 -->
<svg xmlns="http://www.w3.org/2000/svg" xml:space="preserve" width="84.6666mm" height="84.6666mm" version="1.1" style="shape-rendering:geometricPrecision; text-rendering:geometricPrecision; image-rendering:optimizeQuality; fill-rule:evenodd; clip-rule:evenodd"
viewBox="0 0 8467 8467"
 xmlns:xlink="http://www.w3.org/1999/xlink">
 <defs>
  <style type="text/css">
   <![CDATA[
    .fil0 {fill:white}
   ]]>
  </style>
 </defs>
 <g id="Capa_x0020_1">
  <metadata id="CorelCorpID_0Corel-Layer"/>
  <path class="fil0" d="M231 7115l2882 -2882 -2882 -2881c-308,-308 -308,-813 0,-1121l0 0c308,-308 813,-308 1121,0l2881 2882 2882 -2882c308,-308 812,-308 1121,0l0 0c308,308 308,813 0,1121l-2882 2881 2882 2882c308,308 308,812 0,1121l0 0c-309,308 -813,308 -1121,0l-2882 -2882 -2881 2882c-308,308 -813,308 -1121,0l0 0c-308,-309 -308,-813 0,-1121z"/>
 </g>
</svg>
