<?xml version="1.0" encoding="UTF-8"?>
<!DOCTYPE svg PUBLIC "-//W3C//DTD SVG 1.1//EN" "http://www.w3.org/Graphics/SVG/1.1/DTD/svg11.dtd">
<!-- Creator: CorelDRAW X8 -->
<svg xmlns="http://www.w3.org/2000/svg" xml:space="preserve" width="84.6666mm" height="84.6666mm" version="1.1" style="shape-rendering:geometricPrecision; text-rendering:geometricPrecision; image-rendering:optimizeQuality; fill-rule:evenodd; clip-rule:evenodd"
viewBox="0 0 8467 8467"
 xmlns:xlink="http://www.w3.org/1999/xlink">
 <defs>
  <style type="text/css">
   <![CDATA[
    .fil0 {fill:white}
   ]]>
  </style>
 </defs>
 <g id="Capa_x0020_1">
  <metadata id="CorelCorpID_0Corel-Layer"/>
  <g id="_1791822289664">
   <path class="fil0" d="M0 8284c0,308 425,129 529,101 121,-32 228,-62 354,-93l707 -188c137,-45 815,-770 928,-883l5186 -5194c61,-108 -8,-275 -175,-275 -113,0 -297,226 -412,341l-4141 4141c-113,113 -1422,1441 -1511,1500l-738 -727c79,-114 4271,-4281 4518,-4527l1312 -1313c82,-82 158,-118 158,-249 0,-113 -92,-183 -204,-183 -101,0 -821,770 -900,849l-5046 5046c-78,78 -164,132 -202,246l-184 691c-33,135 -179,621 -179,717z"/>
   <path class="fil0" d="M6776 409l1266 1277c102,-67 208,-191 280,-300 234,-352 173,-805 -107,-1114 -312,-342 -918,-380 -1292,0 -51,52 -90,99 -147,137z"/>
  </g>
 </g>
</svg>
