<?xml version="1.0" encoding="UTF-8"?>
<!DOCTYPE svg PUBLIC "-//W3C//DTD SVG 1.1//EN" "http://www.w3.org/Graphics/SVG/1.1/DTD/svg11.dtd">
<!-- Creator: CorelDRAW X8 -->
<svg xmlns="http://www.w3.org/2000/svg" xml:space="preserve" width="84.6666mm" height="30.3106mm" version="1.1" style="shape-rendering:geometricPrecision; text-rendering:geometricPrecision; image-rendering:optimizeQuality; fill-rule:evenodd; clip-rule:evenodd"
viewBox="0 0 8467 3031"
 xmlns:xlink="http://www.w3.org/1999/xlink">
 <defs>
  <style type="text/css">
   <![CDATA[
    .fil0 {fill:white}
   ]]>
  </style>
 </defs>
 <g id="Capa_x0020_1">
  <metadata id="CorelCorpID_0Corel-Layer"/>
  <g id="_2523223243584">
   <path class="fil0" d="M7353 3030l1 -541c-47,-9 -451,3 -478,-1 -10,-2 -6,0 -11,-6l-1 -691 493 -1 0 -553 -493 0 1 -684 492 -1 0 -552 -1547 0c-10,115 -46,337 -63,463 -13,93 -181,1345 -192,1372l-250 -1835 -558 0 55 479c0,0 -1,-1 -2,-2l-18 -31c-39,-65 -71,-108 -121,-165l-56 -57c-223,-194 -401,-224 -694,-224 -63,0 -425,-4 -455,3l-3 2672c-13,-40 -20,-119 -27,-166l-354 -2342c-7,-47 -14,-121 -25,-164 -23,-6 -704,-6 -730,0l-53 346c-17,116 -35,228 -52,344l-285 1890c-5,28 -9,59 -14,88 -2,15 -4,27 -6,42 -2,16 -2,29 -11,41l-2 -2754 -696 1c-11,37 -118,725 -127,782 -13,79 -119,759 -127,776l-245 -1559 -699 0 1 3030 550 0 1 -1451c-1,10 31,178 36,209l183 1068c6,36 13,71 19,107 13,75 5,67 29,68l275 -1c24,-115 41,-243 61,-359 20,-120 40,-240 61,-360 20,-119 39,-240 60,-359 4,-21 51,-335 65,-353l1 1431 1059 -1c11,-28 29,-193 35,-237l24 -176c4,-26 1,-48 14,-51l420 0 65 465 1044 0 0 -983 128 -17 264 1001 539 0c-3,-29 -72,-250 -86,-297 -20,-69 -254,-847 -257,-879 8,-9 25,-23 35,-31 68,-51 152,-177 193,-255 65,-124 101,-250 100,-415 10,18 40,220 43,236l197 1175c12,78 26,156 39,235 4,25 32,228 44,233l637 -3c38,-227 75,-458 110,-686 35,-229 75,-458 109,-686l219 -1367 1 2740 1035 -1zm-3350 -1515c126,2 225,-84 271,-152 62,-91 95,-197 96,-331 2,-174 -48,-365 -197,-445 -47,-25 -106,-49 -170,-44l0 972zm-1471 568l308 0c-9,-107 -26,-218 -39,-325 -13,-100 -106,-906 -119,-962l-150 1287z"/>
   <polygon class="fil0" points="7452,3030 8466,3030 8467,2485 7999,2485 7999,0 7454,-1 "/>
  </g>
 </g>
</svg>
