<?xml version="1.0" encoding="UTF-8"?>
<!DOCTYPE svg PUBLIC "-//W3C//DTD SVG 1.1//EN" "http://www.w3.org/Graphics/SVG/1.1/DTD/svg11.dtd">
<!-- Creator: CorelDRAW X8 -->
<svg xmlns="http://www.w3.org/2000/svg" xml:space="preserve" width="84.6666mm" height="84.6666mm" version="1.1" style="shape-rendering:geometricPrecision; text-rendering:geometricPrecision; image-rendering:optimizeQuality; fill-rule:evenodd; clip-rule:evenodd"
viewBox="0 0 8467 8467"
 xmlns:xlink="http://www.w3.org/1999/xlink">
 <defs>
  <style type="text/css">
   <![CDATA[
    .fil0 {fill:white}
   ]]>
  </style>
 </defs>
 <g id="Capa_x0020_1">
  <metadata id="CorelCorpID_0Corel-Layer"/>
  <g id="search.svg">
   <g>
    <g>
     <path class="fil0" d="M2338 1927c-122,-122 -320,-122 -443,0 -453,453 -676,1085 -611,1733 16,161 152,281 311,281 10,0 21,0 31,-1 172,-17 298,-171 280,-343 -46,-460 112,-908 432,-1228 122,-122 122,-320 0,-442z"/>
    </g>
   </g>
   <g>
    <g>
     <path class="fil0" d="M3576 0c-1972,0 -3576,1604 -3576,3576 0,1973 1604,3577 3576,3577 1973,0 3577,-1604 3577,-3577 0,-1972 -1605,-3576 -3577,-3576zm0 6527c-1627,0 -2950,-1323 -2950,-2951 0,-1627 1323,-2950 2950,-2950 1627,0 2951,1323 2951,2950 0,1628 -1323,2951 -2951,2951z"/>
    </g>
   </g>
   <g>
    <g>
     <path class="fil0" d="M8375 7933l-2273 -2273c-122,-123 -320,-123 -442,0 -123,122 -123,320 0,442l2273 2273c61,61 141,92 221,92 80,0 160,-31 221,-92 122,-122 122,-320 0,-442z"/>
    </g>
   </g>
   <g>
   </g>
   <g>
   </g>
   <g>
   </g>
   <g>
   </g>
   <g>
   </g>
   <g>
   </g>
   <g>
   </g>
   <g>
   </g>
   <g>
   </g>
   <g>
   </g>
   <g>
   </g>
   <g>
   </g>
   <g>
   </g>
   <g>
   </g>
   <g>
   </g>
  </g>
 </g>
</svg>
